HIERARCHY
ROOT mixamorig:Hips
{
	OFFSET -0.000008 104.274872 1.554316
	CHANNELS 6 Xposition Yposition Zposition Xrotation Yrotation Zrotation
	JOINT mixamorig:Spine
	{
		OFFSET -0.000005 10.181595 0.131519
		CHANNELS 6 Xposition Yposition Zposition Xrotation Yrotation Zrotation
		JOINT mixamorig:Spine1
		{
			OFFSET -0.000000 9.893959 -1.470707
			CHANNELS 6 Xposition Yposition Zposition Xrotation Yrotation Zrotation
			JOINT mixamorig:Spine2
			{
				OFFSET -0.000000 9.220757 -1.370641
				CHANNELS 6 Xposition Yposition Zposition Xrotation Yrotation Zrotation
				JOINT mixamorig:Neck
				{
					OFFSET 0.000001 16.740417 -2.049036
					CHANNELS 6 Xposition Yposition Zposition Xrotation Yrotation Zrotation
					JOINT mixamorig:Head
					{
						OFFSET 0.000000 9.617874 1.685006
						CHANNELS 6 Xposition Yposition Zposition Xrotation Yrotation Zrotation
						JOINT mixamorig:HeadTop_End
						{
							OFFSET 0.000002 22.037354 7.501101
							CHANNELS 6 Xposition Yposition Zposition Xrotation Yrotation Zrotation
							End Site
							{
								OFFSET 0.000168 2310.654297 -282.823242
							}
						}
					}
				}
				JOINT mixamorig:RightShoulder
				{
					OFFSET -4.569970 11.014908 -2.160885
					CHANNELS 6 Xposition Yposition Zposition Xrotation Yrotation Zrotation
					JOINT mixamorig:RightArm
					{
						OFFSET -10.592851 -0.524811 -2.232101
						CHANNELS 6 Xposition Yposition Zposition Xrotation Yrotation Zrotation
						JOINT mixamorig:RightForeArm
						{
							OFFSET -27.841511 0.000031 -0.000004
							CHANNELS 6 Xposition Yposition Zposition Xrotation Yrotation Zrotation
							JOINT mixamorig:RightHand
							{
								OFFSET -28.328831 -0.000015 0.000015
								CHANNELS 6 Xposition Yposition Zposition Xrotation Yrotation Zrotation
								JOINT mixamorig:RightHandThumb1
								{
									OFFSET -2.464806 -1.573990 2.681852
									CHANNELS 6 Xposition Yposition Zposition Xrotation Yrotation Zrotation
									JOINT mixamorig:RightHandThumb2
									{
										OFFSET -3.215179 -1.872803 1.924282
										CHANNELS 6 Xposition Yposition Zposition Xrotation Yrotation Zrotation
										JOINT mixamorig:RightHandThumb3
										{
											OFFSET -2.654831 -1.527969 1.512609
											CHANNELS 6 Xposition Yposition Zposition Xrotation Yrotation Zrotation
											JOINT mixamorig:RightHandThumb4
											{
												OFFSET -2.018814 -1.152008 1.108052
												CHANNELS 6 Xposition Yposition Zposition Xrotation Yrotation Zrotation
												End Site
												{
													OFFSET -188.809540 -114.533607 132.431396
												}
											}
										}
									}
								}
								JOINT mixamorig:RightHandIndex1
								{
									OFFSET -9.108284 -0.517868 2.259835
									CHANNELS 6 Xposition Yposition Zposition Xrotation Yrotation Zrotation
									JOINT mixamorig:RightHandIndex2
									{
										OFFSET -3.699989 0.000000 0.001215
										CHANNELS 6 Xposition Yposition Zposition Xrotation Yrotation Zrotation
										JOINT mixamorig:RightHandIndex3
										{
											OFFSET -2.850006 0.000031 -0.000522
											CHANNELS 6 Xposition Yposition Zposition Xrotation Yrotation Zrotation
											JOINT mixamorig:RightHandIndex4
											{
												OFFSET -2.772186 -0.000015 -0.000020
												CHANNELS 6 Xposition Yposition Zposition Xrotation Yrotation Zrotation
												End Site
												{
													OFFSET -277.218445 0.000000 -0.050231
												}
											}
										}
									}
								}
								JOINT mixamorig:RightHandMiddle1
								{
									OFFSET -9.532516 -0.000031 -0.000023
									CHANNELS 6 Xposition Yposition Zposition Xrotation Yrotation Zrotation
									JOINT mixamorig:RightHandMiddle2
									{
										OFFSET -3.700005 -0.000015 0.003713
										CHANNELS 6 Xposition Yposition Zposition Xrotation Yrotation Zrotation
										JOINT mixamorig:RightHandMiddle3
										{
											OFFSET -2.949974 0.000015 -0.002054
											CHANNELS 6 Xposition Yposition Zposition Xrotation Yrotation Zrotation
											JOINT mixamorig:RightHandMiddle4
											{
												OFFSET -2.946640 0.000000 -0.000156
												CHANNELS 6 Xposition Yposition Zposition Xrotation Yrotation Zrotation
												End Site
												{
													OFFSET -294.664337 0.000000 -0.113670
												}
											}
										}
									}
								}
								JOINT mixamorig:RightHandRing1
								{
									OFFSET -9.103600 -0.043076 -1.865134
									CHANNELS 6 Xposition Yposition Zposition Xrotation Yrotation Zrotation
									JOINT mixamorig:RightHandRing2
									{
										OFFSET -3.379288 0.000000 -0.001055
										CHANNELS 6 Xposition Yposition Zposition Xrotation Yrotation Zrotation
										JOINT mixamorig:RightHandRing3
										{
											OFFSET -2.889687 -0.000015 0.000379
											CHANNELS 6 Xposition Yposition Zposition Xrotation Yrotation Zrotation
											JOINT mixamorig:RightHandRing4
											{
												OFFSET -2.638809 -0.000015 0.000941
												CHANNELS 6 Xposition Yposition Zposition Xrotation Yrotation Zrotation
												End Site
												{
													OFFSET -263.880371 0.000000 0.516020
												}
											}
										}
									}
								}
								JOINT mixamorig:RightHandPinky1
								{
									OFFSET -8.076683 -0.486710 -3.806280
									CHANNELS 6 Xposition Yposition Zposition Xrotation Yrotation Zrotation
									JOINT mixamorig:RightHandPinky2
									{
										OFFSET -3.600014 -0.000015 -0.003747
										CHANNELS 6 Xposition Yposition Zposition Xrotation Yrotation Zrotation
										JOINT mixamorig:RightHandPinky3
										{
											OFFSET -2.099983 0.000000 -0.005739
											CHANNELS 6 Xposition Yposition Zposition Xrotation Yrotation Zrotation
											JOINT mixamorig:RightHandPinky4
											{
												OFFSET -2.115768 -0.000031 -0.003680
												CHANNELS 6 Xposition Yposition Zposition Xrotation Yrotation Zrotation
												End Site
												{
													OFFSET -211.577087 0.000000 -0.350686
												}
											}
										}
									}
								}
							}
						}
					}
				}
				JOINT mixamorig:LeftShoulder
				{
					OFFSET 4.570447 11.014725 -2.160855
					CHANNELS 6 Xposition Yposition Zposition Xrotation Yrotation Zrotation
					JOINT mixamorig:LeftArm
					{
						OFFSET 10.592371 -0.524597 -2.232119
						CHANNELS 6 Xposition Yposition Zposition Xrotation Yrotation Zrotation
						JOINT mixamorig:LeftForeArm
						{
							OFFSET 27.841532 -0.000031 0.000026
							CHANNELS 6 Xposition Yposition Zposition Xrotation Yrotation Zrotation
							JOINT mixamorig:LeftHand
							{
								OFFSET 28.328846 -0.000061 0.000022
								CHANNELS 6 Xposition Yposition Zposition Xrotation Yrotation Zrotation
								JOINT mixamorig:LeftHandThumb1
								{
									OFFSET 2.466141 -1.576172 2.681732
									CHANNELS 6 Xposition Yposition Zposition Xrotation Yrotation Zrotation
									JOINT mixamorig:LeftHandThumb2
									{
										OFFSET 3.217812 -1.872070 1.916482
										CHANNELS 6 Xposition Yposition Zposition Xrotation Yrotation Zrotation
										JOINT mixamorig:LeftHandThumb3
										{
											OFFSET 2.656029 -1.528778 1.514513
											CHANNELS 6 Xposition Yposition Zposition Xrotation Yrotation Zrotation
											JOINT mixamorig:LeftHandThumb4
											{
												OFFSET 2.020889 -1.154053 1.115139
												CHANNELS 6 Xposition Yposition Zposition Xrotation Yrotation Zrotation
												End Site
												{
													OFFSET 190.885437 -115.081749 130.048782
												}
											}
										}
									}
								}
								JOINT mixamorig:LeftHandIndex1
								{
									OFFSET 9.109314 -0.518021 2.259871
									CHANNELS 6 Xposition Yposition Zposition Xrotation Yrotation Zrotation
									JOINT mixamorig:LeftHandIndex2
									{
										OFFSET 3.699989 0.000000 -0.000322
										CHANNELS 6 Xposition Yposition Zposition Xrotation Yrotation Zrotation
										JOINT mixamorig:LeftHandIndex3
										{
											OFFSET 2.850006 0.000000 0.000352
											CHANNELS 6 Xposition Yposition Zposition Xrotation Yrotation Zrotation
											JOINT mixamorig:LeftHandIndex4
											{
												OFFSET 2.774864 -0.000031 -0.000027
												CHANNELS 6 Xposition Yposition Zposition Xrotation Yrotation Zrotation
												End Site
												{
													OFFSET 277.486267 0.000000 -0.009857
												}
											}
										}
									}
								}
								JOINT mixamorig:LeftHandMiddle1
								{
									OFFSET 9.533394 0.000061 0.000044
									CHANNELS 6 Xposition Yposition Zposition Xrotation Yrotation Zrotation
									JOINT mixamorig:LeftHandMiddle2
									{
										OFFSET 3.699989 -0.000015 -0.000231
										CHANNELS 6 Xposition Yposition Zposition Xrotation Yrotation Zrotation
										JOINT mixamorig:LeftHandMiddle3
										{
											OFFSET 2.949997 -0.000015 -0.000059
											CHANNELS 6 Xposition Yposition Zposition Xrotation Yrotation Zrotation
											JOINT mixamorig:LeftHandMiddle4
											{
												OFFSET 2.952896 0.000031 0.000063
												CHANNELS 6 Xposition Yposition Zposition Xrotation Yrotation Zrotation
												End Site
												{
													OFFSET 295.289337 0.000000 0.022810
												}
											}
										}
									}
								}
								JOINT mixamorig:LeftHandRing1
								{
									OFFSET 9.104523 -0.042999 -1.865074
									CHANNELS 6 Xposition Yposition Zposition Xrotation Yrotation Zrotation
									JOINT mixamorig:LeftHandRing2
									{
										OFFSET 3.150009 -0.000031 0.000043
										CHANNELS 6 Xposition Yposition Zposition Xrotation Yrotation Zrotation
										JOINT mixamorig:LeftHandRing3
										{
											OFFSET 2.949982 -0.000015 0.000040
											CHANNELS 6 Xposition Yposition Zposition Xrotation Yrotation Zrotation
											JOINT mixamorig:LeftHandRing4
											{
												OFFSET 2.644348 0.000000 0.000057
												CHANNELS 6 Xposition Yposition Zposition Xrotation Yrotation Zrotation
												End Site
												{
													OFFSET 264.434631 0.000000 0.012105
												}
											}
										}
									}
								}
								JOINT mixamorig:LeftHandPinky1
								{
									OFFSET 8.077789 -0.486847 -3.806259
									CHANNELS 6 Xposition Yposition Zposition Xrotation Yrotation Zrotation
									JOINT mixamorig:LeftHandPinky2
									{
										OFFSET 3.599953 0.000031 0.014727
										CHANNELS 6 Xposition Yposition Zposition Xrotation Yrotation Zrotation
										JOINT mixamorig:LeftHandPinky3
										{
											OFFSET 2.100021 0.000015 0.007705
											CHANNELS 6 Xposition Yposition Zposition Xrotation Yrotation Zrotation
											JOINT mixamorig:LeftHandPinky4
											{
												OFFSET 2.125504 0.000031 0.007517
												CHANNELS 6 Xposition Yposition Zposition Xrotation Yrotation Zrotation
												End Site
												{
													OFFSET 212.550781 0.000000 0.625752
												}
											}
										}
									}
								}
							}
						}
					}
				}
			}
		}
	}
	JOINT mixamorig:RightUpLeg
	{
		OFFSET -8.207787 -6.751648 -1.599560
		CHANNELS 6 Xposition Yposition Zposition Xrotation Yrotation Zrotation
		JOINT mixamorig:RightLeg
		{
			OFFSET -0.000002 -44.370117 0.345942
			CHANNELS 6 Xposition Yposition Zposition Xrotation Yrotation Zrotation
			JOINT mixamorig:RightFoot
			{
				OFFSET 0.000003 -44.423679 -3.043532
				CHANNELS 6 Xposition Yposition Zposition Xrotation Yrotation Zrotation
				JOINT mixamorig:RightToeBase
				{
					OFFSET -0.000002 -8.728671 10.710558
					CHANNELS 6 Xposition Yposition Zposition Xrotation Yrotation Zrotation
					JOINT mixamorig:RightToe_End
					{
						OFFSET -0.000001 -0.000679 9.278119
						CHANNELS 6 Xposition Yposition Zposition Xrotation Yrotation Zrotation
						End Site
						{
							OFFSET 0.000000 -0.067690 927.812134
						}
					}
				}
			}
		}
	}
	JOINT mixamorig:LeftUpLeg
	{
		OFFSET 8.207793 -6.751686 -1.599556
		CHANNELS 6 Xposition Yposition Zposition Xrotation Yrotation Zrotation
		JOINT mixamorig:LeftLeg
		{
			OFFSET -0.000004 -44.370014 0.346954
			CHANNELS 6 Xposition Yposition Zposition Xrotation Yrotation Zrotation
			JOINT mixamorig:LeftFoot
			{
				OFFSET -0.000001 -44.423672 -3.044401
				CHANNELS 6 Xposition Yposition Zposition Xrotation Yrotation Zrotation
				JOINT mixamorig:LeftToeBase
				{
					OFFSET -0.000002 -8.728669 10.710558
					CHANNELS 6 Xposition Yposition Zposition Xrotation Yrotation Zrotation
					JOINT mixamorig:LeftToe_End
					{
						OFFSET -0.000003 -0.000679 9.278133
						CHANNELS 6 Xposition Yposition Zposition Xrotation Yrotation Zrotation
						End Site
						{
							OFFSET 0.000000 -0.068021 927.813477
						}
					}
				}
			}
		}
	}
}
MOTION
Frames: 3
Frame Time: 0.033333
0.000006 104.270477 1.554256 0.000010 0.000003 -0.000113 -0.000005 10.181587 0.131522 0.000001 -0.000003 0.000084 -0.000000 9.893967 -1.470711 0.000001 0.000000 -0.000000 -0.000000 9.220802 -1.370642 0.000000 -0.000000 -0.000000 0.000001 16.740433 -2.049030 0.000000 -0.000000 -0.000000 0.000000 9.617859 1.685014 0.000000 0.000000 0.000000 0.000002 22.037384 7.501101 0.000000 -0.000000 0.000000 -4.569968 11.014880 -2.160881 0.000008 0.000001 -0.000038 -10.592789 -0.524840 -2.231744 71.286397 65.099161 -49.186897 -27.841501 0.000001 0.000574 6.063440 100.578108 -7.297581 -28.328831 0.000023 0.000026 -0.000324 -0.000044 0.000008 -2.464365 -1.573960 2.682322 -27.520804 -136.427674 22.403210 -3.214825 -1.872437 1.924639 123.673621 -0.744069 131.581750 -2.654590 -1.527630 1.512983 125.177505 9.451994 115.668980 -2.018815 -1.151996 1.108062 -0.000005 -0.000000 0.000003 -9.108382 -0.517656 2.260280 128.432801 20.189373 -40.559828 -3.700090 0.000247 0.001642 115.793426 21.241132 -33.241735 -2.850116 0.000281 -0.000139 114.884342 22.228485 -34.202524 -2.772165 -0.000003 -0.000017 -0.000002 -0.000001 0.000001 -9.532604 0.000202 0.000402 124.910363 18.348801 -34.686617 -3.700087 0.000298 0.004095 120.659731 12.998995 -22.448926 -2.950099 0.000275 -0.001656 125.397806 16.887071 -32.075040 -2.946626 0.000003 -0.000148 -0.000000 0.000001 0.000000 -9.103708 -0.042862 -1.864687 124.062723 23.653729 -42.958048 -3.379336 0.000298 -0.000669 123.324926 6.365723 -11.805623 -2.889769 0.000290 0.000832 135.373571 7.364172 -17.938227 -2.638813 -0.000020 0.000935 -0.000001 -0.000000 -0.000002 -8.076775 -0.486486 -3.805854 118.853925 25.870223 -42.229680 -3.600053 0.000234 -0.003317 133.504407 8.295284 -18.320258 -2.100025 0.000224 -0.005258 138.100483 6.040304 -15.100170 -2.115757 -0.000053 -0.003677 -0.000001 -0.000002 -0.000008 4.570446 11.014691 -2.160851 -0.000018 0.000010 -0.000021 10.592515 -0.524534 -2.232401 65.268994 -61.109866 41.417051 27.841795 -0.000010 -0.000161 154.861016 -83.828155 152.102548 28.328835 -0.000028 0.000018 0.000021 -0.000089 0.000002 2.465845 -1.576028 2.681876 -54.660460 184.061932 38.724611 3.217802 -1.871766 1.916379 158.149110 -30.786265 2.866461 2.656121 -1.528596 1.514475 157.026391 -24.197511 40.163961 2.020895 -1.154070 1.115145 0.000003 0.000003 0.000004 9.109400 -0.517933 2.259782 80.231220 -35.493300 30.169198 3.700041 0.000039 -0.000390 56.364333 -40.358700 22.292416 2.850045 0.000061 0.000303 46.618387 -30.239604 13.279536 2.774873 -0.000031 -0.000029 -0.000000 -0.000000 -0.000000 9.533457 0.000118 -0.000022 58.797964 -34.376376 19.767047 3.700058 0.000067 -0.000319 68.146300 -32.951838 22.621993 2.950066 0.000060 -0.000142 65.488127 -34.438285 22.545189 2.952881 -0.000045 0.000063 0.000000 0.000001 -0.000000 9.104591 -0.042930 -1.865177 64.283855 -29.688616 18.910748 3.150051 0.000149 -0.000073 72.352850 -19.166368 14.077966 2.950021 0.000105 -0.000046 73.600718 -21.868703 16.449249 2.644314 0.000015 0.000052 -0.000001 0.000000 0.000001 8.077840 -0.486769 -3.806375 63.214979 -23.166070 14.781445 3.599985 0.000148 0.014565 61.301590 -9.909179 6.178913 2.100034 0.000143 0.007537 67.840062 -11.528167 8.094923 2.125502 -0.000026 0.007514 -0.000000 0.000000 -0.000003 -8.207786 -6.751667 -1.599560 -0.077001 -0.000003 0.000080 -0.000002 -44.370110 0.345938 0.153719 -0.000000 -0.000000 0.000000 -44.423679 -3.043532 -0.076700 0.000000 -0.000002 -0.000006 -8.728667 10.710559 -0.000009 -0.000000 -0.000000 -0.000001 -0.000679 9.278123 0.000000 -0.000000 -0.000000 8.207792 -6.751710 -1.599556 -0.074518 -0.000003 0.000081 -0.000002 -44.370014 0.346960 0.148822 0.000002 0.000000 -0.000001 -44.423664 -3.044403 -0.074314 0.000000 -0.000002 -0.000004 -8.728671 10.710558 0.000007 -0.000000 -0.000000 0.000000 -0.000680 9.278137 -0.000000 0.000000 -0.000001 
0.000006 104.270477 1.554256 0.000010 0.000003 -0.000113 -0.000005 10.181587 0.131522 0.000001 -0.000003 0.000084 -0.000000 9.893967 -1.470711 0.000001 0.000000 -0.000000 -0.000000 9.220802 -1.370642 0.000000 -0.000000 -0.000000 0.000001 16.740433 -2.049030 0.000000 -0.000000 -0.000000 0.000000 9.617859 1.685014 0.000000 0.000000 0.000000 0.000002 22.037384 7.501101 0.000000 -0.000000 0.000000 -4.569968 11.014880 -2.160881 0.000008 0.000001 -0.000038 -10.592779 -0.524837 -2.231746 74.216344 66.242883 -52.539297 -27.841490 0.000006 0.000575 2.328711 100.143045 -2.782165 -28.328835 0.000021 0.000033 -0.000320 -0.000044 0.000006 -2.464364 -1.573931 2.682295 -34.777233 -138.583336 11.395007 -3.214735 -1.872535 1.924667 127.150870 -13.455597 150.295294 -2.654461 -1.527737 1.513036 128.507318 -8.916931 147.394062 -2.018826 -1.152022 1.108058 -0.000002 -0.000001 0.000002 -9.108397 -0.517730 2.260335 141.205692 25.590268 -65.770501 -3.700085 0.000113 0.001728 133.846996 29.352987 -63.104172 -2.850115 0.000160 -0.000020 142.042062 26.143804 -68.046600 -2.772163 -0.000003 -0.000019 -0.000000 0.000000 -0.000000 -9.532602 0.000115 0.000461 138.317614 24.133705 -59.000082 -3.700104 0.000193 0.004164 133.001692 21.723251 -47.395420 -2.950076 0.000160 -0.001556 143.127775 21.731789 -59.846466 -2.946636 0.000030 -0.000153 -0.000000 0.000001 0.000001 -9.103681 -0.042960 -1.864633 139.582197 29.472966 -70.982775 -3.379323 0.000233 -0.000565 140.627530 7.961829 -22.063552 -2.889756 0.000182 0.000890 152.485981 7.225041 -29.118725 -2.638818 -0.000018 0.000940 0.000002 -0.000000 0.000004 -8.076754 -0.486545 -3.805797 133.271935 29.371606 -62.152679 -3.600044 0.000125 -0.003238 153.589876 7.620502 -30.103990 -2.100024 0.000128 -0.005219 154.890809 5.938164 -25.165687 -2.115772 -0.000012 -0.003674 0.000001 -0.000000 -0.000005 4.570446 11.014691 -2.160851 -0.000018 0.000010 -0.000021 10.592516 -0.524535 -2.232390 64.251275 -62.273369 41.547156 27.841805 0.000010 -0.000165 144.150432 -84.251012 140.638936 28.328829 -0.000013 0.000017 0.000019 -0.000089 0.000001 2.465834 -1.575947 2.681839 -55.603928 192.742624 56.392286 3.217731 -1.871680 1.916390 150.651871 -33.665343 -22.724140 2.656014 -1.528456 1.514428 158.356761 -30.320651 5.675373 2.020898 -1.154052 1.115146 0.000002 0.000003 0.000006 9.109403 -0.517894 2.259766 88.798572 -28.674306 28.089740 3.700068 0.000040 -0.000368 71.061384 -42.929412 31.383428 2.850083 0.000082 0.000254 71.633255 -34.852758 25.525404 2.774875 -0.000044 -0.000025 -0.000001 0.000002 0.000002 9.533476 0.000156 -0.000045 75.349458 -30.653728 23.891022 3.700087 0.000075 -0.000314 72.791559 -30.066332 22.394382 2.950086 0.000077 -0.000140 71.337583 -33.120038 24.097737 2.952858 -0.000031 0.000062 -0.000000 -0.000001 0.000000 9.104594 -0.042894 -1.865206 75.676310 -22.905985 17.887924 3.150037 0.000161 -0.000088 76.028263 -12.613955 9.877058 2.950028 0.000098 -0.000063 74.275234 -19.602846 14.909094 2.644324 0.000042 0.000056 -0.000003 -0.000001 0.000000 8.077828 -0.486741 -3.806401 70.059176 -13.891764 10.170041 3.599966 0.000171 0.014541 68.318592 0.671403 -0.172016 2.100029 0.000147 0.007544 72.005364 -8.077403 6.210183 2.125494 0.000003 0.007514 0.000001 -0.000000 -0.000002 -8.207786 -6.751667 -1.599560 -0.077001 -0.000003 0.000080 -0.000002 -44.370110 0.345938 0.153719 -0.000000 -0.000000 0.000000 -44.423679 -3.043532 -0.076700 0.000000 -0.000002 -0.000006 -8.728667 10.710559 -0.000009 -0.000000 -0.000000 -0.000001 -0.000679 9.278123 0.000000 -0.000000 -0.000000 8.207792 -6.751710 -1.599556 -0.074518 -0.000003 0.000081 -0.000002 -44.370014 0.346960 0.148822 0.000002 0.000000 -0.000001 -44.423664 -3.044403 -0.074314 0.000000 -0.000002 -0.000004 -8.728671 10.710558 0.000007 -0.000000 -0.000000 0.000000 -0.000680 9.278137 -0.000000 0.000000 -0.000001 
0.000006 104.270477 1.554256 0.000010 0.000003 -0.000113 -0.000005 10.181587 0.131522 0.000001 -0.000003 0.000084 -0.000000 9.893967 -1.470711 0.000001 0.000000 -0.000000 -0.000000 9.220802 -1.370642 0.000000 -0.000000 -0.000000 0.000001 16.740433 -2.049030 0.000000 -0.000000 -0.000000 0.000000 9.617859 1.685014 0.000000 0.000000 0.000000 0.000002 22.037384 7.501101 0.000000 -0.000000 0.000000 -4.569968 11.014880 -2.160881 0.000008 0.000001 -0.000038 -10.592770 -0.524837 -2.231738 76.989469 67.621619 -56.080880 -27.841501 -0.000004 0.000558 0.272172 99.099017 -0.319290 -28.328842 0.000019 0.000024 -0.000324 -0.000044 0.000007 -2.464358 -1.573846 2.682286 -44.397490 -144.944674 -4.257485 -3.214690 -1.872626 1.924700 135.333915 -26.226379 171.495163 -2.654413 -1.527978 1.513108 152.618924 -34.663401 199.809398 -2.018837 -1.152020 1.108061 -0.000002 -0.000003 0.000000 -9.108377 -0.517765 2.260334 140.583543 34.769600 -82.421313 -3.700034 0.000045 0.001755 145.741047 40.416155 -100.061745 -2.849999 0.000037 0.000036 160.723408 33.656481 -121.369593 -2.772167 -0.000016 -0.000016 0.000000 0.000000 0.000002 -9.532598 0.000075 0.000484 142.459878 28.159425 -73.240487 -3.700082 0.000089 0.004239 143.951851 29.294162 -77.273707 -2.950007 0.000014 -0.001497 160.592542 30.534043 -115.841087 -2.946624 0.000001 -0.000158 -0.000000 0.000001 -0.000000 -9.103690 -0.042974 -1.864630 142.478197 30.440855 -77.273748 -3.379328 0.000167 -0.000549 145.604798 11.779614 -36.926304 -2.889720 0.000043 0.000935 160.698546 12.805923 -67.123466 -2.638817 -0.000000 0.000940 -0.000000 0.000003 -0.000000 -8.076748 -0.486585 -3.805777 139.623861 28.095727 -68.088961 -3.600016 0.000147 -0.003257 152.767631 5.761438 -21.975398 -2.100005 0.000059 -0.005195 157.510159 8.186293 -38.373304 -2.115767 -0.000051 -0.003678 -0.000000 0.000001 -0.000004 4.570446 11.014691 -2.160851 -0.000018 0.000010 -0.000021 10.592517 -0.524532 -2.232383 62.951545 -65.211026 42.772089 27.841808 -0.000001 -0.000171 144.680004 -84.882825 141.608454 28.328833 -0.000029 0.000017 0.000020 -0.000088 -0.000001 2.465938 -1.576106 2.681909 -47.115082 169.436653 7.918926 3.217519 -1.871713 1.916466 130.415509 -24.794084 -102.238131 2.655702 -1.528671 1.514642 131.083474 0.128741 -152.624525 2.020891 -1.154081 1.115155 -0.000003 0.000005 0.000002 9.109409 -0.517956 2.259841 90.346122 -44.974671 45.205624 3.700066 0.000047 -0.000348 75.697395 -45.833202 36.387491 2.850106 0.000105 0.000280 74.985034 -37.880622 29.495400 2.774868 -0.000034 -0.000024 0.000003 -0.000000 0.000001 9.533503 0.000112 -0.000011 84.184540 -41.767344 38.023755 3.700085 0.000082 -0.000316 78.877962 -34.308788 28.490485 2.950089 0.000049 -0.000116 75.067945 -40.094703 31.324142 2.952882 -0.000017 0.000056 0.000002 -0.000001 -0.000000 9.104626 -0.042923 -1.865164 80.581991 -38.441469 32.934790 3.150057 0.000174 -0.000075 80.502051 -19.101413 16.215183 2.950022 0.000107 -0.000029 82.069210 -25.915765 22.650473 2.644313 0.000032 0.000060 -0.000002 0.000001 -0.000001 8.077856 -0.486769 -3.806382 65.692370 -30.497344 20.411667 3.599981 0.000159 0.014565 63.278124 -6.792349 4.481909 2.100045 0.000130 0.007576 69.157899 -17.455547 12.442198 2.125504 -0.000014 0.007514 0.000000 -0.000001 -0.000000 -8.207786 -6.751667 -1.599560 -0.077001 -0.000003 0.000080 -0.000002 -44.370110 0.345938 0.153719 -0.000000 -0.000000 0.000000 -44.423679 -3.043532 -0.076700 0.000000 -0.000002 -0.000006 -8.728667 10.710559 -0.000009 -0.000000 -0.000000 -0.000001 -0.000679 9.278123 0.000000 -0.000000 -0.000000 8.207792 -6.751710 -1.599556 -0.074518 -0.000003 0.000081 -0.000002 -44.370014 0.346960 0.148822 0.000002 0.000000 -0.000001 -44.423664 -3.044403 -0.074314 0.000000 -0.000002 -0.000004 -8.728671 10.710558 0.000007 -0.000000 -0.000000 0.000000 -0.000680 9.278137 -0.000000 0.000000 -0.000001 
